# xmcd CD database file
#
# Track frame offsets:
#	150
#	55102
#	97807
#	121050
#	162192
#	202242
#	227992
#	261042
#
# Disc length: 3912 seconds
#
# Revision: 0
# Processed by: cddbd v1.5.2PL0 Copyright (c) Steve Scherf et al.
# Submitted via: CDex 1.51
#
DISCID=640f4608
DTITLE=Richard Davis quart - Total Package
DYEAR=1998
DGENRE=Jazz
TTITLE0=Pam/Total Pkg
TTITLE1=7-10 Lombard
TTITLE2=Sweet'n
TTITLE3=Dealing See All 2
TTITLE4=Clean Jeans (Genes)
TTITLE5=NOTHER
TTITLE6=Spooky Conversations	
TTITLE7=Front Winder
EXTD=YEAR: 1998
EXTT0=
EXTT1=
EXTT2=
EXTT3=
EXTT4=
EXTT5=
EXTT6=
EXTT7=
PLAYORDER=
